<?xml version="1.0" encoding="UTF-8"?>
<svg id="Layer_1" xmlns="http://www.w3.org/2000/svg" viewBox="0 0 264.4 284.03">
  <defs>
    <style>
      .cls-1 {
        fill: #462d52;
        font-family: LegacySansITCPro-Book, 'Legacy Sans ITC Pro';
        font-size: 24px;
      }

      .cls-2 {
        fill: #9f90a2;
      }

      .cls-2, .cls-3 {
        stroke: #462d52;
        stroke-linecap: round;
        stroke-miterlimit: 10;
        stroke-width: 4px;
      }

      .cls-4 {
        fill: #eae2af;
      }

      .cls-3 {
        fill: none;
      }

      .cls-5 {
        fill: #d1c33f;
      }
    </style>
  </defs>
  <path class="cls-4" d="M136.97,88.57l27.1-20.42,7.3,3.33c4.91,2.52,26.95-1.31,26.95-1.31-5.19,14.26-27.13,11.12-42.58,16.05-12.5,3.98-14.99,14.29-23.31,26.19l4.54-23.84Z"/>
  <path class="cls-4" d="M135.67,92.42l36.89-15.31,7.37,4.73c4.18,3.6,26.51,5.04,26.51,5.04-8.39,12.64-28.98,4.45-45.16,5.62-13.08.94-17.92,10.38-28.8,20l3.19-20.08Z"/>
  <path class="cls-4" d="M132.26,112.41c-8.44-11.82-11.04-22.1-23.57-25.96-15.5-4.78-37.41-1.42-42.74-15.62,0,0,22.08,3.61,26.96,1.04l28.84,9.64,9.1,16.89,1.42,14Z"/>
  <path class="cls-4" d="M132.34,112.35c-5.57-13.41-5.77-24.02-17.12-30.59-14.03-8.14-36.13-9.79-38.14-24.83,0,0,20.7,8.48,26.04,7.08,0,0,3.71,6.46,13.86,9.83,9.42,3.13,16.39,17.68,15.25,21.09-1.17-3.4,5.69-18.02,15.08-21.25,10.12-3.48,13.76-9.97,13.76-9.97,5.35,1.35,25.96-7.34,25.96-7.34-1.85,15.06-23.94,16.93-37.88,25.21-11.28,6.69-11.37,17.29-16.81,30.76Z"/>
  <path class="cls-4" d="M84.45,82.32h25.23l13.18,11.63,9.35,18.55c-10.98-9.51-15.91-18.9-29-19.7-16.19-1.01-36.7,7.4-45.21-5.16,0,0,22.31-1.67,26.45-5.31"/>
  <path class="cls-5" d="M51.1,105.46c12.59-9.53,29.78-6.82,44.19-4.06,9.32,1.94,18.54,4.47,27.41,7.99,1.33.54,2.23,1.93,2.2,3.37,0,.46,0,2.99,0,3.5v.7c0,.09,0,.03,0,.03-.01-.16-.12-.31-.29-.36-.38-.03.42,0,.82-.02,3.45,0,9.15,0,12.61,0,0,0,1.4,0,1.4,0,.4,0,1.2-.02.82.02-.16.05-.28.19-.29.36,0,0,0,.06,0-.03,0-.43,0-3.01,0-3.5-.13-1.57.4-3.11,1.84-3.9,8.95-3.67,18.33-6.16,27.76-8.16,12.86-2.53,26.98-4.61,39.38,1.04,1.73.84,3.35,1.84,4.81,3.03-6.69-3.39-14.28-3.35-21.55-2.73-16.51.46-33.08,4.48-48.5,10.34.14-.06.24-.2.25-.34,0,0,0-.06,0,.03v.7c0,.74.02,3.12-.01,3.82-.04,1.91-2.05,3.53-3.82,3.33-4.63,0-10.78,0-15.41,0-1.76.19-3.78-1.42-3.82-3.34-.04-1.09,0-3.54-.01-4.55,0,.15.11.29.25.34l-.13-.05c-15.39-5.81-31.91-9.86-48.37-10.27-7.27-.61-14.85-.66-21.55,2.71h0Z"/>
  <path class="cls-5" d="M180.49,81.78c3.99,2.04,8.75,2.13,13.14,2.72,5.34.52,10.75.88,16.1,1.11,0,0-1.4,2.18-1.4,2.18-8.5,12.97-28.3,5.93-40.95,5.74-6.92-.57-13.79.69-19.28,5.14-5.47,4.29-10.04,9.75-15.41,14.21-.06.05-.16.05-.21-.02-.05-.06-.05-.15.01-.21,2.57-2.37,4.97-4.91,7.36-7.48,4.77-5.15,9.86-10.66,16.93-12.58,13.7-3.41,28.08,2.75,41.55-1.02,3.08-.99,5.73-2.79,7.53-5.43l1.14,2.31c-4.6-.44-9.14-1.01-13.67-1.89-4.44-1.01-9.33-1.69-13.03-4.56-.15-.12.05-.35.2-.23h0Z"/>
  <path class="cls-5" d="M171.83,71.33c4.36,1.05,9,.02,13.41-.44,5.31-.75,10.66-1.67,15.92-2.7,0,0-.85,2.45-.85,2.45-5.19,14.58-26.15,12.41-38.46,15.18-6.86,1.07-13.25,3.91-17.54,9.52-4.33,5.21-7.6,12.56-11.86,17.46-.07-.05-.08-.14-.04-.2,1.95-2.91,3.68-5.94,5.4-9,3.43-6.13,7.08-12.67,13.5-16.2,12.52-6.53,27.94-3.92,40.15-10.74,2.76-1.69,4.92-4.05,6.05-7.04l1.65,1.98c-4.57.65-9.12,1.16-13.73,1.37-4.56.06-9.47.54-13.74-1.38-.17-.08-.03-.35.14-.27h0Z"/>
  <path class="cls-5" d="M132.44,112.63c5.28-15.16,4.75-27.5,21.61-34.76,10.18-5.36,30.4-8.71,32.03-21.8,0,0,2.04,1.54,2.04,1.54-6.43,2.6-12.88,5.05-19.65,6.66-2.5.5-4.68,1.11-7.39.6,0,0,1.42-.61,1.42-.61-2.26,3.41-5.28,5.76-8.72,7.73-2.06,1.18-4.3,2.01-6.54,2.76-4.64,1.82-8.04,5.72-10.69,9.91-1.43,2.35-2.64,4.86-3.34,7.53-.2.89-.39,1.82-.17,2.73-1.09-5.97,5.08-15.94,9.78-19.57,1.48-1.2,3.27-2.14,5.07-2.8,4.85-1.95,9.58-5.07,12.4-9.53,0,0,.46-.8.46-.8l.95.19c4.16.33,8.58-1.49,12.58-2.71,5.06-1.72,10.12-3.7,15.04-5.8,0,0-.31,2.53-.31,2.53-.41,3.81-2.37,7.47-5.17,10.04-10.77,9.61-26.47,10.01-37.58,18.69-8.11,6.88-9.27,18.27-13.83,27.47h0Z"/>
  <path class="cls-5" d="M132.22,112.89c-8.39-5.71-14.7-15.22-24.86-17.75-14-3.41-34.54,5.3-46.62-3-1.87-1.33-3.31-3.15-4.49-5.08,4.95-.28,9.92-.7,14.84-1.35,4.38-.75,9.17-1.06,13.02-3.44.15-.13.36.09.2.23-3.83,2.63-8.64,3.14-13.08,4.1-4.51.8-9.04,1.4-13.61,1.87l.56-1.15c7.91,11.2,27.28,4.48,39.05,4.12,13.07-1.2,20.03,4.03,28.13,13.46,2.33,2.62,4.62,5.24,7.07,7.77.12.12-.05.34-.2.23h0Z"/>
  <path class="cls-5" d="M132.25,112.78c-6.81-7.52-10.72-18.24-20.01-23.09-13.43-7.19-41.36-2.09-47.36-18.62,0,0-.43-1.21-.43-1.21,4.88.89,9.81,1.65,14.75,2.17,4.44.3,9.16,1.12,13.46-.3.08-.04.18-.01.22.07.03.07,0,.16-.08.19-2.15.96-4.51,1-6.8,1.09-6.88.08-13.72-.66-20.54-1.54,0,0,.81-.99.81-.99,5.06,12.74,25.47,10.75,36.99,13.17,13.02,1.92,18.5,8.58,24.19,19.68,1.65,3.1,3.27,6.18,5.05,9.21.09.14-.13.32-.24.17h0Z"/>
  <path class="cls-5" d="M132.47,112.63c-4.65-9.16-5.92-20.53-14.1-27.33-11.19-8.57-26.9-8.81-37.77-18.32-2.82-2.54-4.83-6.18-5.27-9.99,0,0-.33-2.52-.33-2.52,4.94,2.05,10.01,3.98,15.09,5.65,3.19,1.03,6.4,2.03,9.69,2.53,1.48.23,2.62.18,3.87-.15.94,1.72,2.32,3.36,3.82,4.7,2.98,2.74,6.67,4.63,10.46,6.03,4.91,2.07,8.43,6.54,10.89,11.04,1.58,3.26,3.53,6.96,2.87,10.67.21-.91,0-1.84-.2-2.73-.72-2.66-1.97-5.17-3.42-7.5-2.69-4.16-6.13-8.04-10.79-9.81-2.24-.72-4.49-1.53-6.57-2.69-3.46-1.93-6.5-4.26-8.8-7.64,0,0,1.42.6,1.42.6-4.94.73-9.47-1.11-14.11-2.33-4.41-1.37-8.7-2.95-13-4.65,0,0,2.03-1.56,2.03-1.56,1.77,13.08,22.02,16.22,32.25,21.48,16.92,7.08,16.54,19.47,21.96,34.54h0Z"/>
  <ellipse class="cls-2" cx="132.44" cy="154.33" rx="71.59" ry="23.94"/>
  <path class="cls-3" d="M99.63,266.17c-13.4-2.91-24.33-7.55-31.13-13.21"/>
  <path class="cls-3" d="M184.27,260.17c-9.88,4.36-22.84,7.47-37.41,8.73-4.66.4-9.49.61-14.43.61"/>
  <path class="cls-3" d="M225.41,243.23h-7.54c-7.65,0-13.84-6.2-13.84-13.84v-72.16"/>
  <path class="cls-3" d="M34.79,242.97l13.51-.04c6.93,0,12.54-5.62,12.54-12.54v-75.08"/>
  <path class="cls-3" d="M166.73,133.31c31.49,15.85,8.29,36.4-24.83,38.45-26.5,1.64-51.31-5.62-55.41-16.22-3.29-8.48,11.23-16.43,32.43-17.74,16.96-1.05,32.84,3.6,35.46,10.38,2.1,5.43-7.19,10.51-20.76,11.35-10.85.67-21.01-2.3-22.7-6.64-1.35-3.47,4.6-6.73,13.28-7.27,6.95-.43,13.45,1.47,14.53,4.25.86,2.22-2.94,4.31-8.5,4.65"/>
  <line class="cls-3" x1="86.02" y1="174.14" x2="86.02" y2="193.06"/>
  <line class="cls-3" x1="100.13" y1="224.9" x2="100.13" y2="266.17"/>
  <line class="cls-3" x1="155.72" y1="178.87" x2="155.72" y2="242.18"/>
  <text class="cls-1" transform="translate(37.75 59.06) rotate(-42.45)"><tspan x="0" y="0">B</tspan></text>
  <text class="cls-1" transform="translate(51.58 46.79) rotate(-34.39)"><tspan x="0" y="0">R</tspan></text>
  <text class="cls-1" transform="translate(67.52 36.46) rotate(-27.88)"><tspan x="0" y="0">I</tspan></text>
  <text class="cls-1" transform="translate(77.22 31.27) rotate(-20.87)"><tspan x="0" y="0">G</tspan></text>
  <text class="cls-1" transform="translate(97.02 24.05) rotate(-11.49)"><tspan x="0" y="0">H</tspan></text>
  <text class="cls-1" transform="translate(118.67 20.15) rotate(-2.94)"><tspan x="0" y="0">T</tspan></text>
  <text class="cls-1" transform="translate(136.36 19.66) rotate(3)"><tspan x="0" y="0"> </tspan></text>
  <text class="cls-1" transform="translate(146.44 19.92) rotate(10.9)"><tspan x="0" y="0">W</tspan></text>
  <text class="cls-1" transform="translate(171.94 25.36) rotate(21.5)"><tspan x="0" y="0">O</tspan></text>
  <text class="cls-1" transform="translate(193.02 34.05) rotate(31.4)"><tspan x="0" y="0">O</tspan></text>
  <text class="cls-1" transform="translate(212.29 46.28) rotate(40.96)"><tspan x="0" y="0">D</tspan></text>
</svg>